<svg width="26" height="26" viewBox="0 0 26 26" fill="none" xmlns="http://www.w3.org/2000/svg">
<g id="LinkedIn">
<rect id="Rectangle" width="26" height="26" rx="13" fill="#87E7AD"/>
<g id="Group">
<path id="Path" d="M20.2178 19.1344C19.3646 19.1141 18.5318 19.1141 17.6787 19.1344C17.4959 19.1344 17.4553 19.0938 17.4553 18.911C17.4553 17.4078 17.4553 15.8844 17.4553 14.3813C17.4553 14.036 17.435 13.6906 17.3334 13.3656C17.0287 12.3094 15.81 11.9235 14.9365 12.6344C14.4693 13 14.2865 13.5078 14.2865 14.1172C14.2865 15.5391 14.2865 16.961 14.2865 18.3828C14.2865 18.5656 14.2662 18.7485 14.2865 18.9516C14.3068 19.1141 14.2256 19.1547 14.0834 19.1344C13.21 19.1344 12.3568 19.1344 11.4834 19.1344C11.3209 19.1344 11.2803 19.0938 11.2803 18.9313C11.3006 17.6516 11.3006 16.3719 11.3006 15.0719C11.3006 13.4875 11.3006 11.9031 11.2803 10.3391C11.2803 10.1563 11.3209 10.1156 11.4834 10.1156C12.3568 10.1156 13.21 10.1156 14.0834 10.1156C14.2459 10.1156 14.2865 10.1563 14.2865 10.3188C14.2865 10.6438 14.2865 10.9688 14.2865 11.3547C14.3475 11.2938 14.3678 11.2735 14.3881 11.2531C15.1803 10.0953 16.2975 9.77033 17.6178 9.97346C19.1412 10.2172 20.1162 11.2735 20.36 12.8985C20.4209 13.2844 20.4412 13.6703 20.4412 14.0563C20.4412 15.6813 20.4412 17.286 20.4412 18.911C20.4412 19.0735 20.4006 19.1344 20.2178 19.1344Z" fill="black"/>
<path id="Path_2" d="M9.65537 14.6251C9.65537 16.047 9.65537 17.4688 9.65537 18.8907C9.65537 19.0735 9.61475 19.1345 9.43193 19.1345C8.57881 19.1142 7.72568 19.1345 6.87256 19.1345C6.71006 19.1345 6.66943 19.0938 6.66943 18.9313C6.66943 16.0673 6.66943 13.1829 6.66943 10.3188C6.66943 10.1767 6.71006 10.1157 6.87256 10.1157C7.746 10.1157 8.61943 10.1157 9.49287 10.1157C9.67568 10.1157 9.696 10.1767 9.696 10.3392C9.65537 11.761 9.65537 13.1829 9.65537 14.6251Z" fill="black"/>
<path id="Path_3" d="M9.79745 7.75945C9.59432 8.57195 8.76151 9.03913 7.80682 8.87663C6.7912 8.71413 6.22245 7.71882 6.58807 6.74382C6.83182 6.13445 7.42089 5.76882 8.17245 5.78913C9.30995 5.76882 10.0615 6.68288 9.79745 7.75945Z" fill="black"/>
</g>
</g>
</svg>
