<svg width="35" height="35" viewBox="0 0 35 35" fill="none" xmlns="http://www.w3.org/2000/svg">
<path d="M32.0832 26.2574C32.0832 27.0595 31.4328 27.7084 30.6321 27.7084H18.9509C18.566 27.7084 18.197 27.5555 17.9248 27.2834C17.6527 27.0113 17.4998 26.6422 17.4998 26.2574C17.4998 25.8725 17.6527 25.5035 17.9248 25.2313C18.197 24.9592 18.566 24.8063 18.9509 24.8063H30.6321C31.4342 24.8063 32.0832 25.4553 32.0832 26.2574ZM32.0832 17.5001C32.0832 18.3022 31.4328 18.9511 30.6321 18.9511H4.36755C3.98271 18.9511 3.61363 18.7982 3.3415 18.5261C3.06938 18.254 2.9165 17.8849 2.9165 17.5001C2.9165 17.1152 3.06938 16.7462 3.3415 16.474C3.61363 16.2019 3.98271 16.049 4.36755 16.049H30.6321C31.4342 16.049 32.0832 16.6995 32.0832 17.5001ZM30.6321 10.1938C31.017 10.1938 31.386 10.041 31.6582 9.76883C31.9303 9.49671 32.0832 9.12763 32.0832 8.74279C32.0832 8.35795 31.9303 7.98887 31.6582 7.71675C31.386 7.44462 31.017 7.29175 30.6321 7.29175H13.1175C12.927 7.29175 12.7383 7.32928 12.5623 7.4022C12.3862 7.47512 12.2262 7.58201 12.0915 7.71675C11.9568 7.85149 11.8499 8.01145 11.777 8.1875C11.704 8.36355 11.6665 8.55224 11.6665 8.74279C11.6665 8.93334 11.704 9.12203 11.777 9.29808C11.8499 9.47413 11.9568 9.63409 12.0915 9.76883C12.2262 9.90357 12.3862 10.0105 12.5623 10.0834C12.7383 10.1563 12.927 10.1938 13.1175 10.1938H30.6321Z" fill="white"/>
</svg>
