<svg width="30" height="30" viewBox="0 0 30 30" fill="none" xmlns="http://www.w3.org/2000/svg">
<g id="ri:whatsapp-fill">
<path id="Vector" d="M15 2C22.1799 2 28 7.8201 28 15C28 22.1799 22.1799 28 15 28C12.7026 28.0037 10.4457 27.3957 8.46101 26.2385L2.00522 28L3.76282 21.5416C2.60464 19.5563 1.99618 17.2984 2.00002 15C2.00002 7.8201 7.82012 2 15 2ZM10.5696 8.89L10.3096 8.9004C10.1413 8.91065 9.97679 8.95487 9.82601 9.0304C9.68499 9.11025 9.55626 9.21009 9.44381 9.3268C9.28781 9.4737 9.19941 9.60109 9.10451 9.72459C8.62367 10.3498 8.36478 11.1173 8.36871 11.906C8.37131 12.543 8.53771 13.1631 8.79771 13.7429C9.32941 14.9155 10.2043 16.157 11.3587 17.3075C11.6369 17.5844 11.9099 17.8626 12.2037 18.1213C13.6381 19.3842 15.3474 20.2949 17.1957 20.7811L17.9341 20.8942C18.1746 20.9072 18.4151 20.889 18.6569 20.8773C19.0355 20.8577 19.4052 20.7552 19.7398 20.577C19.91 20.4893 20.0762 20.3939 20.2377 20.291C20.2377 20.291 20.2936 20.2546 20.4002 20.174C20.5757 20.044 20.6836 19.9517 20.8292 19.7996C20.9371 19.6878 21.0307 19.5565 21.1022 19.407C21.2036 19.1951 21.305 18.7908 21.3466 18.4541C21.3778 18.1967 21.3687 18.0563 21.3648 17.9692C21.3596 17.8301 21.2439 17.6858 21.1178 17.6247L20.3612 17.2854C20.3612 17.2854 19.2302 16.7927 18.5386 16.4781C18.4662 16.4465 18.3887 16.4284 18.3098 16.4248C18.2209 16.4157 18.131 16.4257 18.0462 16.4541C17.9615 16.4826 17.8838 16.5289 17.8184 16.5899C17.8119 16.5873 17.7248 16.6614 16.7849 17.8002C16.731 17.8727 16.6567 17.9275 16.5715 17.9576C16.4863 17.9877 16.394 17.9917 16.3065 17.9692C16.2218 17.9465 16.1388 17.9178 16.0582 17.8834C15.897 17.8158 15.8411 17.7898 15.7306 17.743C14.9845 17.4174 14.2937 16.9775 13.6831 16.4391C13.5193 16.2961 13.3672 16.1401 13.2112 15.9893C12.6998 15.4995 12.2541 14.9454 11.8852 14.3409L11.8085 14.2174C11.7534 14.1344 11.7089 14.0449 11.6759 13.9509C11.6265 13.7598 11.7552 13.6064 11.7552 13.6064C11.7552 13.6064 12.0711 13.2606 12.218 13.0734C12.361 12.8914 12.4819 12.7146 12.5599 12.5885C12.7133 12.3415 12.7614 12.088 12.6808 11.8917C12.3168 11.0025 11.9398 10.1172 11.5524 9.23839C11.4757 9.0642 11.2482 8.93939 11.0415 8.91469C10.9713 8.9069 10.9011 8.8991 10.8309 8.8939C10.6563 8.88522 10.4814 8.88696 10.307 8.8991L10.5683 8.8887L10.5696 8.89Z" fill="#87E7AD"/>
</g>
</svg>
